<?xml version="1.0" encoding="UTF-8"?>
<svg version="1.1" xmlns="http://www.w3.org/2000/svg" width="436" height="415">
<path d="M0 0 C2.41683466 2.21105691 4.7919205 4.46296538 7.16479492 6.72119141 C7.86991211 7.37345703 8.5750293 8.02572266 9.30151367 8.69775391 C19.59897182 18.51480326 27.9914677 30.49232025 35.16479492 42.72119141 C35.59791992 43.4562793 36.03104492 44.19136719 36.47729492 44.94873047 C50.62687078 69.37885754 59.3452075 97.39197415 60.16479492 125.72119141 C60.20475586 126.92130859 60.2447168 128.12142578 60.28588867 129.35791016 C61.13590893 179.60910779 41.32937819 225.51482174 6.68798828 261.47412109 C0.36843361 267.95105729 -6.62656046 273.2807554 -13.83520508 278.72119141 C4.25277265 283.94962196 22.31099955 288.56596197 40.80444336 292.11474609 C42.26313808 292.39483278 43.72179677 292.67510722 45.18041992 292.95556641 C45.9058197 293.09492615 46.63121948 293.23428589 47.37860107 293.37786865 C57.721079 295.38522028 67.98948994 297.73863742 78.265625 300.05737305 C79.69163353 300.37898101 81.11765837 300.70051667 82.54370117 301.02197266 C83.21444168 301.17332169 83.88518219 301.32467072 84.57624817 301.48060608 C89.75765176 302.64394856 94.951503 303.71134037 100.16479492 304.72119141 C100.16479492 310.00119141 100.16479492 315.28119141 100.16479492 320.72119141 C91.00587554 319.42770636 82.03788301 317.67446687 73.03042603 315.60964966 C62.4793704 313.19179222 51.92025402 310.83589533 41.30151367 308.73291016 C40.08350067 308.49138466 40.08350067 308.49138466 38.84088135 308.24497986 C38.02947693 308.08413406 37.21807251 307.92328827 36.38208008 307.75756836 C19.40749748 304.39165271 2.7350491 300.42482493 -13.91333008 295.70166016 C-15.09580322 295.37125732 -16.27827637 295.04085449 -17.49658203 294.70043945 C-19.64272814 294.07095557 -21.77446214 293.38869305 -23.8828125 292.64233398 C-28.5999682 291.05118618 -31.67190344 290.13916779 -36.29223633 292.33447266 C-37.76132721 293.20573213 -39.21277433 294.10724938 -40.64770508 295.03369141 C-61.00952458 306.8810521 -84.46856722 313.24944374 -107.83520508 315.72119141 C-108.87290039 315.83205078 -109.9105957 315.94291016 -110.97973633 316.05712891 C-160.69089127 320.59304193 -211.7110745 306.16779646 -250.51489258 274.51806641 C-255.80268753 270.11105554 -260.85016105 265.4653768 -265.83520508 260.72119141 C-266.54032227 260.06892578 -267.24543945 259.41666016 -267.97192383 258.74462891 C-278.26938198 248.92757956 -286.66187786 236.95006256 -293.83520508 224.72119141 C-294.26833008 223.98610352 -294.70145508 223.25101562 -295.14770508 222.49365234 C-319.12790558 181.09033741 -324.68611317 132.44743317 -312.57250977 86.40429688 C-307.85485293 69.23639996 -300.74127223 52.58029214 -290.83520508 37.72119141 C-291.92067627 37.89509399 -291.92067627 37.89509399 -293.02807617 38.07250977 C-307.32546064 40.33983155 -321.36197803 42.22638022 -335.83520508 42.72119141 C-335.83520508 37.44119141 -335.83520508 32.16119141 -335.83520508 26.72119141 C-333.54969727 26.55683594 -333.54969727 26.55683594 -331.21801758 26.38916016 C-320.7874134 25.60194475 -310.44177432 24.76889179 -300.1574707 22.80541992 C-296.60866091 22.13536775 -293.20715768 21.64314639 -289.59301758 21.54150391 C-282.63256661 21.27266626 -277.78220726 20.43335891 -272.86450195 15.34326172 C-270.8574268 13.05037701 -268.94030994 10.70285716 -267.07250977 8.29541016 C-242.03882076 -23.55487136 -195.79406408 -41.70847395 -157.14770508 -47.59130859 C-155.04599358 -47.84199466 -152.94173028 -48.07244417 -150.83520508 -48.27880859 C-149.80137695 -48.38837891 -148.76754883 -48.49794922 -147.70239258 -48.61083984 C-93.90992544 -53.56714824 -40.13909876 -36.11959762 0 0 Z M-166.83520508 -36.27880859 C-167.60074707 -36.11251953 -168.36628906 -35.94623047 -169.1550293 -35.77490234 C-200.52517888 -28.77639758 -229.42141166 -14.37531055 -252.83520508 7.72119141 C-254.95974129 9.53297864 -257.09285409 11.33255995 -259.24145508 13.11572266 C-260.97328359 14.8602852 -261.78954291 16.51503704 -262.83520508 18.72119141 C-242.19276538 17.7143788 -221.96452044 14.8739906 -201.54316711 11.84315491 C-192.06140097 10.44381713 -182.55852447 9.23873607 -173.04785156 8.05419922 C-167.2602825 7.32492312 -161.51649072 6.52592644 -155.77783203 5.48120117 C-144.09603304 3.36977458 -132.29747328 2.93102619 -120.45947266 2.3671875 C-118.94669451 2.29511503 -117.43391779 2.22301293 -115.92114258 2.15087891 C-114.83224228 2.09942719 -114.83224228 2.09942719 -113.72134399 2.04693604 C-110.0424745 1.86422185 -106.39470875 1.61384699 -102.73754883 1.17431641 C-98.76499679 0.71303909 -95.01919594 0.58795971 -91.02270508 0.59619141 C-89.12584961 0.59232422 -89.12584961 0.59232422 -87.19067383 0.58837891 C-84.47644268 0.69581064 -82.41363011 1.01302994 -79.83520508 1.72119141 C-78.08194644 10.09225459 -79.80011185 15.65960088 -83.21020508 23.34619141 C-84.14391281 25.55337685 -85.07483294 27.76174331 -86.00317383 29.97119141 C-86.71546143 31.64761719 -86.71546143 31.64761719 -87.44213867 33.35791016 C-89.62587198 38.63009908 -91.56747517 43.98606889 -93.52270508 49.34619141 C-96.41860299 57.19548261 -99.57966098 64.77282055 -103.22583008 72.29931641 C-104.88729787 75.83195181 -106.34681983 79.39998383 -107.77270508 83.03369141 C-116.76739827 105.88347214 -127.97845817 127.76263745 -139.56469727 149.39135742 C-141.94660288 153.8840453 -144.03069691 158.39108057 -145.96020508 163.09619141 C-148.86727773 170.13048833 -152.69470084 176.35304746 -156.83520508 182.72119141 C-158.00319443 184.55368236 -159.16991279 186.38698419 -160.33520508 188.22119141 C-160.89723633 189.10033203 -161.45926758 189.97947266 -162.03833008 190.88525391 C-165.36062721 196.12870547 -168.60240175 201.42220507 -171.83520508 206.72119141 C-172.40754883 207.63126953 -172.97989258 208.54134766 -173.56958008 209.47900391 C-174.9990575 211.58235224 -174.9990575 211.58235224 -174.83520508 213.72119141 C-172.95865995 215.10138304 -172.95865995 215.10138304 -170.51879883 216.44775391 C-169.60211426 216.97916992 -168.68542969 217.51058594 -167.7409668 218.05810547 C-166.30261475 218.88133301 -166.30261475 218.88133301 -164.83520508 219.72119141 C-163.05518812 220.77055347 -161.27523993 221.82003218 -159.49536133 222.86962891 C-147.56825784 229.78773032 -135.70240401 235.78722069 -122.83520508 240.72119141 C-121.73869629 241.1464209 -120.6421875 241.57165039 -119.51245117 242.00976562 C-106.68442866 246.97651726 -93.82911121 251.873217 -80.79052734 256.2644043 C-76.06792563 257.87100694 -71.44000643 259.65995344 -66.81176758 261.52197266 C-64.15368348 262.5903079 -61.4949181 263.65691762 -58.83520508 264.72119141 C-58.15790344 264.99222687 -57.48060181 265.26326233 -56.78277588 265.54251099 C-52.61444576 267.19978329 -48.42780337 268.78941065 -44.20874023 270.31298828 C-42.7784724 270.84050026 -41.35550904 271.38820271 -39.94018555 271.95458984 C-31.42419645 275.55440951 -31.42419645 275.55440951 -22.61401367 274.41992188 C-19.76258976 272.3713874 -17.32313693 270.19385018 -14.83520508 267.72119141 C-13.61951548 266.73626335 -12.39434779 265.76278795 -11.15551758 264.80712891 C22.90871988 236.29582879 45.73393552 195.14161545 50.16479492 150.72119141 C50.92562402 133.11952561 51.35261321 114.92398135 47.16479492 97.72119141 C46.96611816 96.88910156 46.76744141 96.05701172 46.56274414 95.19970703 C43.41947066 82.41941607 38.98445456 70.51411724 33.16479492 58.72119141 C32.58729492 57.54943359 32.00979492 56.37767578 31.41479492 55.17041016 C9.29255686 12.41099168 -30.19340448 -17.82665716 -75.59057617 -32.32421875 C-93.1450511 -37.48885359 -110.43568008 -39.51466287 -128.64770508 -39.52880859 C-129.42799072 -39.52948334 -130.20827637 -39.53015808 -131.01220703 -39.53085327 C-143.18529706 -39.51414915 -154.91796975 -38.95814276 -166.83520508 -36.27880859 Z M-160.03442383 20.72509766 C-165.78068334 21.74727343 -171.53613386 22.45078856 -177.33520508 23.09619141 C-185.03691342 23.96217446 -192.70435181 24.97416327 -200.36645508 26.13525391 C-201.21205994 26.263284 -202.05766479 26.39131409 -202.92889404 26.52322388 C-204.67774219 26.78827849 -206.42658242 27.05338542 -208.17541504 27.31854248 C-223.43990389 29.62933767 -238.64978418 31.56809795 -254.04223633 32.78369141 C-260.05318483 33.26005437 -266.04913188 33.79230803 -272.03051758 34.56103516 C-273.06192871 34.6911499 -274.09333984 34.82126465 -275.15600586 34.95532227 C-279.3541417 36.1553908 -280.89701115 38.56320013 -283.02661133 42.23291016 C-283.62344727 43.38404297 -284.2202832 44.53517578 -284.83520508 45.72119141 C-285.71720194 47.31221098 -286.60151817 48.90194595 -287.48754883 50.49072266 C-295.01282443 64.20129587 -300.69818437 77.70975983 -304.58520508 92.84619141 C-304.88370361 94.0084021 -304.88370361 94.0084021 -305.18823242 95.1940918 C-308.26399107 107.88654649 -309.21555193 120.40912621 -309.14770508 133.40869141 C-309.14554993 134.15508881 -309.14339478 134.90148621 -309.14117432 135.67050171 C-309.08766245 147.24468592 -308.58184618 158.43849319 -305.83520508 169.72119141 C-305.63652832 170.55328125 -305.43785156 171.38537109 -305.2331543 172.24267578 C-302.08988082 185.02296675 -297.65486472 196.92826558 -291.83520508 208.72119141 C-290.96895508 210.47882813 -290.96895508 210.47882813 -290.08520508 212.27197266 C-267.96296702 255.03139113 -228.47700568 285.26903997 -183.07983398 299.76660156 C-165.52535905 304.9312364 -148.23473008 306.95704568 -130.02270508 306.97119141 C-129.24241943 306.97186615 -128.46213379 306.97254089 -127.65820312 306.97323608 C-115.4851131 306.95653196 -103.7524404 306.40052557 -91.83520508 303.72119141 C-91.06966309 303.55490234 -90.30412109 303.38861328 -89.51538086 303.21728516 C-73.69686116 299.68826196 -58.22942419 294.17563706 -43.83520508 286.72119141 C-46.68877644 284.38742321 -49.23815769 283.04837091 -52.72973633 281.88916016 C-53.67768066 281.56866699 -54.625625 281.24817383 -55.60229492 280.91796875 C-56.60728027 280.58490723 -57.61226562 280.2518457 -58.64770508 279.90869141 C-66.54254798 277.23286893 -74.29721572 274.41192031 -82.00634766 271.23999023 C-85.86915346 269.68288464 -89.78345605 268.30324362 -93.71801758 266.93994141 C-121.14962429 257.33805199 -147.26630416 246.82358356 -172.39819336 232.13574219 C-174.64668458 230.83061715 -176.90608653 229.54890163 -179.17504883 228.27978516 C-179.8219165 227.91691406 -180.46878418 227.55404297 -181.13525391 227.18017578 C-182.82850115 226.23241037 -184.52319906 225.28723792 -186.21801758 224.34228516 C-189.73439623 222.16422972 -191.47318095 220.88484039 -192.71020508 216.90869141 C-192.95301071 210.7171478 -188.85337925 206.19593264 -185.50708008 201.27587891 C-183.67653509 198.47873773 -182.0016019 195.61895225 -180.33520508 192.72119141 C-178.33146649 189.24193289 -176.2952006 185.84321305 -174.02270508 182.53369141 C-167.40078162 172.74245163 -161.44646598 162.51291627 -156.5871582 151.73608398 C-154.00362307 146.01039137 -151.21804696 140.39613347 -148.39770508 134.78369141 C-147.92300781 133.83840576 -147.44831055 132.89312012 -146.95922852 131.91918945 C-146.02199778 130.05455118 -145.08418503 128.19020532 -144.14575195 126.32617188 C-142.02427929 122.10931023 -139.91315925 117.88725119 -137.80886841 113.66178894 C-136.21222454 110.46015585 -134.60493786 107.26519932 -132.96557617 104.08520508 C-127.99449735 94.38855364 -123.70837986 84.51573693 -119.64770508 74.40869141 C-118.46991242 71.4946283 -117.28828133 68.58214124 -116.10473633 65.67041016 C-115.82153534 64.9718541 -115.53833435 64.27329803 -115.24655151 63.55357361 C-113.66461987 59.67396178 -112.00704043 55.84827396 -110.23754883 52.04931641 C-107.32893862 45.76105401 -104.96313426 39.28739891 -102.58520508 32.78369141 C-101.91618164 30.97674805 -101.91618164 30.97674805 -101.23364258 29.13330078 C-98.73941319 22.51852977 -98.73941319 22.51852977 -96.83520508 15.72119141 C-118.00137094 15.60942676 -139.19794624 17.01288104 -160.03442383 20.72509766 Z " fill="#01FE99" transform="translate(335.835205078125,73.27880859375)"/>
<path d="M0 0 C1.89685547 -0.02126953 1.89685547 -0.02126953 3.83203125 -0.04296875 C6.99130734 0.1740246 8.66802531 0.32579026 11.1875 2.1875 C13.91237792 6.62191798 13.23490195 10.26471084 12.1875 15.1875 C11.21940474 18.11897946 9.9791585 20.8858312 8.6875 23.6875 C5.32536949 31.28597619 2.42426818 38.96824486 -0.3125 46.8125 C-3.40315433 55.60555438 -6.88310818 63.9917315 -10.98046875 72.35546875 C-12.78078508 76.05026607 -14.31305416 79.79757355 -15.8125 83.625 C-24.76163232 106.43974477 -35.97947565 128.27323036 -47.54199219 149.85766602 C-49.9238978 154.3503539 -52.00799183 158.85738916 -53.9375 163.5625 C-56.84457265 170.59679692 -60.67199576 176.81935605 -64.8125 183.1875 C-65.98048935 185.01999095 -67.14720772 186.85329278 -68.3125 188.6875 C-68.87582031 189.56921875 -69.43914062 190.4509375 -70.01953125 191.359375 C-74.78064271 198.8692763 -79.47817926 206.421842 -83.8125 214.1875 C-83.008125 214.39375 -82.20375 214.6 -81.375 214.8125 C-78.4312497 215.94868433 -76.58595767 216.92555914 -74.0625 218.6875 C-48.81186077 235.99981118 -18.57182374 246.02998414 10.23217773 255.73071289 C14.95717508 257.33813051 19.57531625 259.1396136 24.19921875 261.01953125 C32.40392786 264.3454312 40.74176794 267.2236524 49.125 270.0625 C50.59843043 270.56474307 52.07173831 271.06734581 53.54492188 271.5703125 C57.09105351 272.78016588 60.63878827 273.98523228 64.1875 275.1875 C60.86160656 278.59214993 57.86295041 281.25192772 53.6875 283.5625 C52.7696875 284.08585937 51.851875 284.60921875 50.90625 285.1484375 C46.43482479 286.85734426 42.57335028 285.06780276 38.1953125 283.55078125 C37.25059082 283.22384277 36.30586914 282.8969043 35.33251953 282.56005859 C34.33591309 282.21023926 33.33930664 281.86041992 32.3125 281.5 C31.28108887 281.13986816 30.24967773 280.77973633 29.18701172 280.40869141 C22.38347738 278.01326042 15.6868608 275.45028148 9.01611328 272.70678711 C5.15346907 271.14921978 1.23926788 269.76955875 -2.6953125 268.40625 C-30.12925787 258.80354198 -56.24672914 248.2882291 -81.37988281 233.59765625 C-83.61380214 232.30268254 -85.85980763 231.03475976 -88.1171875 229.78125 C-88.75954346 229.42289063 -89.40189941 229.06453125 -90.0637207 228.6953125 C-91.74002148 227.76260329 -93.41873569 226.83423518 -95.09765625 225.90625 C-98.85977661 223.52447596 -101.35293117 221.59684441 -102.75 217.3125 C-102.87308501 211.15824962 -98.8150504 206.63926965 -95.484375 201.7421875 C-93.65383001 198.94504632 -91.97889682 196.08526084 -90.3125 193.1875 C-88.30876141 189.70824149 -86.27249552 186.30952164 -84 183 C-77.37807654 173.20876023 -71.42376091 162.97922486 -66.56445312 152.20239258 C-63.98091799 146.47669997 -61.19534189 140.86244206 -58.375 135.25 C-57.90030273 134.30471436 -57.42560547 133.35942871 -56.93652344 132.38549805 C-55.9992927 130.52085978 -55.06147995 128.65651392 -54.12304688 126.79248047 C-52.00157421 122.57561882 -49.89045417 118.35355979 -47.78616333 114.12809753 C-46.18951947 110.92646445 -44.58223279 107.73150792 -42.94287109 104.55151367 C-37.97179228 94.85486223 -33.68567478 84.98204553 -29.625 74.875 C-28.44720734 71.96093688 -27.26555848 69.04845707 -26.08203125 66.13671875 C-25.79887558 65.43816269 -25.51571991 64.73960663 -25.22398376 64.0198822 C-23.64193693 60.1394919 -21.98275828 56.31436709 -20.2109375 52.515625 C-17.30423164 46.2340389 -14.97841223 39.75481715 -12.625 33.25 C-11.7585866 30.86513012 -10.89018292 28.48098211 -10.01953125 26.09765625 C-9.6428833 25.05746338 -9.26623535 24.01727051 -8.87817383 22.94555664 C-7.97330262 20.60367119 -6.98462255 18.40460747 -5.8125 16.1875 C-6.97209229 16.34436279 -8.13168457 16.50122559 -9.32641602 16.6628418 C-13.41264826 17.17254854 -17.47391049 17.41485713 -21.58984375 17.58203125 C-23.07515698 17.64804563 -24.56042599 17.7150609 -26.0456543 17.78295898 C-26.81324066 17.81783417 -27.58082703 17.85270935 -28.37167358 17.88864136 C-42.10962865 18.5318836 -55.45623139 19.77747611 -69.01171875 22.19140625 C-74.75797827 23.21358203 -80.51342879 23.91709715 -86.3125 24.5625 C-94.01420652 25.42848284 -101.6816534 26.44043351 -109.34375 27.6015625 C-110.61222527 27.79367561 -110.61222527 27.79367561 -111.90632629 27.9896698 C-113.65521696 28.2547917 -115.40410301 28.51994411 -117.15298462 28.78512573 C-136.01034418 31.63817042 -154.79851637 33.70402417 -173.8125 35.1875 C-176.11861468 35.3773931 -178.42461408 35.56869395 -180.73046875 35.76171875 C-181.71168701 35.84381592 -182.69290527 35.92591309 -183.70385742 36.01049805 C-184.39970947 36.06890869 -185.09556152 36.12731934 -185.8125 36.1875 C-182.82753596 30.21757191 -177.62907842 20.79742484 -171.03027344 18.59179688 C-168.38856046 18.11021644 -165.78782365 17.88012431 -163.109375 17.6796875 C-143.86290908 16.11803111 -124.84608892 13.58892319 -105.75488281 10.70068359 C-103.78583114 10.40316246 -101.81675605 10.10579621 -99.84765625 9.80859375 C-98.42465965 9.5933606 -98.42465965 9.5933606 -96.97291565 9.3737793 C-89.84072064 8.30817607 -82.70172604 7.42320232 -75.53222656 6.65063477 C-71.48523411 6.14675286 -67.50634243 5.43955817 -63.5 4.6875 C-52.2489926 2.72553746 -40.82839045 2.3765965 -29.44018555 1.83398438 C-27.9262669 1.76177384 -26.41235082 1.68950958 -24.8984375 1.6171875 C-23.80943146 1.56565269 -23.80943146 1.56565269 -22.69842529 1.51307678 C-19.02005793 1.33023568 -15.37184951 1.081311 -11.71484375 0.64453125 C-7.75106817 0.18030528 -3.98857574 0.0205385 0 0 Z " fill="#FEC700" transform="translate(244.8125,72.8125)"/>
<path d="M0 0 C10.43096488 2.91522059 20.87353135 5.25451912 31.5 7.3125 C45.63034158 10.04991658 59.68407481 13.04257784 73.72412109 16.21069336 C75.15070031 16.53245955 76.57729484 16.85415782 78.00390625 17.17578125 C78.67468201 17.32714035 79.34545776 17.47849945 80.03656006 17.63444519 C85.21793122 18.79776305 90.41174427 19.86515597 95.625 20.875 C95.625 26.155 95.625 31.435 95.625 36.875 C86.46608062 35.58151495 77.49808809 33.82827547 68.4906311 31.76345825 C57.93957651 29.34560105 47.3804634 26.98967866 36.76171875 24.88671875 C35.94961945 24.72570175 35.13752014 24.56468475 34.30081177 24.39878845 C33.48933685 24.23794266 32.67786194 24.07709686 31.84179688 23.91137695 C17.51144666 21.0698608 3.33664449 17.94970773 -10.75 14.0625 C-11.4350058 13.87350128 -12.1200116 13.68450256 -12.82577515 13.48977661 C-20.07825105 11.47573247 -27.2601871 9.33185805 -34.375 6.875 C-34.375 6.215 -34.375 5.555 -34.375 4.875 C-32.26305378 3.18364051 -30.1831917 1.68078112 -27.9375 0.1875 C-27.34517578 -0.24111328 -26.75285156 -0.66972656 -26.14257812 -1.11132812 C-17.73635842 -6.69449651 -8.95628 -2.5952618 0 0 Z " fill="#FEC700" transform="translate(340.375,357.125)"/>
<path d="M0 0 C-0.87175626 1.3354564 -1.74764271 2.66821662 -2.625 4 C-3.11226562 4.7425 -3.59953125 5.485 -4.1015625 6.25 C-4.72804687 7.1575 -5.35453125 8.065 -6 9 C-6.36351562 9.66394775 -6.72703125 10.32789551 -7.1015625 11.01196289 C-9.21846064 14.47672977 -10.83945113 16.57402841 -14.72314453 17.99951172 C-18.06471731 18.66179136 -21.36127945 19.08993892 -24.75 19.4375 C-25.94471924 19.58670898 -27.13943848 19.73591797 -28.37036133 19.88964844 C-37.90275856 21.02971879 -47.40815118 21.67207354 -57 22 C-57 16.72 -57 11.44 -57 6 C-54.71449219 5.83564453 -54.71449219 5.83564453 -52.3828125 5.66796875 C-41.07422658 4.81398758 -29.97053494 3.66858212 -18.80859375 1.6640625 C-12.52485608 0.56843644 -6.37491109 -0.0556275 0 0 Z " fill="#FEC701" transform="translate(57,94)"/>
</svg>
